# xmcd
# Copyright (C) 1995-1998 Ti Kan
#
# Track frame offsets:
#       150
#       12385
#       23332
#       34032
#       46452
#       58035
#       69945
#       83335
#       91335
#       104060
#       114752
#       134232
#       149070
#       161407
#       175200
#       187345
#       197807
#       209370
#       221130
#       232272
#
# Disc length: 3224 seconds
#
# Revision: 0
# Processed by: cddbd v1.5.2PL0 Copyright (c) Steve Scherf et al.
# Submitted via: CD-Import v1.0
#
DISCID=280c9614
DTITLE=Chuck Berry - Classic
DYEAR=1999
DGENRE=
TTITLE0=Johnny B. Goode
TTITLE1=Roll Over Beethoven
TTITLE2=Maybellene
TTITLE3=School Days
TTITLE4=Rock And Roll Music
TTITLE5=Oh Baby Doll
TTITLE6=Too Much Monkey Business
TTITLE7=Let It Rock
TTITLE8=Carol
TTITLE9=Sweet Little Rock And Roller
TTITLE10=My Ding-A-Ling
TTITLE11=Reelin' And Rockin'
TTITLE12=No Particular Place To Go
TTITLE13=Sweet Little Sixteen
TTITLE14=Little Queenie
TTITLE15=Brown Eyed Handsome Man
TTITLE16=Nadine
TTITLE17=Too Pooped To Pop
TTITLE18=Back In The Usa
TTITLE19=Bye Bye Johnny
EXTD=
EXTT0=
EXTT1=
EXTT2=
EXTT3=
EXTT4=
EXTT5=
EXTT6=
EXTT7=
EXTT8=
EXTT9=
EXTT10=
EXTT11=
EXTT12=
EXTT13=
EXTT14=
EXTT15=
EXTT16=
EXTT17=
EXTT18=
EXTT19=
PLAYORDER=
